<?xml version="1.0" encoding="utf-8"?>
<!-- Generator: Adobe Illustrator 16.0.0, SVG Export Plug-In . SVG Version: 6.00 Build 0)  -->
<!DOCTYPE svg PUBLIC "-//W3C//DTD SVG 1.1//EN" "http://www.w3.org/Graphics/SVG/1.1/DTD/svg11.dtd">
<svg version="1.1" id="Livello_1" xmlns="http://www.w3.org/2000/svg" xmlns:xlink="http://www.w3.org/1999/xlink" x="0px" y="0px"
	 width="200px" height="200px" viewBox="0 0 200 200" enable-background="new 0 0 200 200" xml:space="preserve">
<g>
	<g>
		<path fill="#032140" d="M68.448,122.748c7.418,0,13.774-4.629,16.341-11.148c11.209,0.918,21.696-17.778,34.144-20.462
			c15.773-3.405,27.739,16.652,22.654,35.217c-5.084,18.572-19.5,34.983-48.507,35.202c-19.994,0.152-28.125-36.326-28.125-36.326
			c-0.321-1.092-0.6-2.096-0.84-3.022C65.499,122.558,66.956,122.748,68.448,122.748z"/>
	</g>
</g>
<g>
	<path fill="#032140" d="M68.448,91.013c7.818,0,14.181,6.36,14.181,14.181c0,7.816-6.361,14.176-14.181,14.176
		c-7.82,0-14.181-6.361-14.181-14.176C54.267,97.375,60.63,91.013,68.448,91.013z"/>
</g>
<g>
	<g>
		<path fill="#032140" d="M7.898,98.959c9.868-17.396,45.523-6.198,45.523-6.198c0.754,0.185,1.462,0.364,2.126,0.543
			c-2.885,3.13-4.656,7.311-4.656,11.894c0,4.44,1.662,8.497,4.392,11.589c-6.351,9.266,4.564,27.664,0.675,39.772
			c-4.938,15.365-28.293,15.692-41.832,2.01C0.586,144.885-6.417,124.192,7.898,98.959z"/>
	</g>
</g>
<g>
	<g>
		<path fill="#032140" d="M50.017,32.22c18.621-4.882,40.042-0.606,54.739,24.406c10.122,17.242-17.4,42.523-17.4,42.523
			c-0.657,0.689-1.268,1.313-1.853,1.897c-1.871-7.688-8.807-13.41-17.056-13.41c-1.117,0-2.201,0.112-3.257,0.31
			c-5.569-9.321-26.042-9.328-34.35-18.496C20.006,57.489,31.396,37.097,50.017,32.22z"/>
	</g>
</g>
<path fill="#032140" d="M199.717,67.558l-13.769-7.952v5.378h-2.811c-9.587,0-11.673-6.31-14.09-13.623
	c-2.113-6.374-4.5-13.602-13.135-13.602h-44.151c-1.421,0-2.572,1.153-2.572,2.571c0,1.422,1.151,2.571,2.572,2.571h44.153
	c4.69,0,6.123,3.642,8.251,10.077c2.395,7.237,5.672,17.147,18.974,17.147h2.813v5.378L199.717,67.558z"/>
<path fill="#032140" d="M199.717,87.874l-13.769-7.952V85.3h-15.15c-9.585,0-11.674-6.312-14.093-13.621
	c-2.108-6.375-4.497-13.603-13.132-13.603H117.54c-1.419,0-2.572,1.152-2.572,2.573c0,1.42,1.153,2.571,2.572,2.571h26.033
	c4.685,0,6.118,3.637,8.249,10.071c2.396,7.238,5.674,17.151,18.976,17.151h15.15v5.376L199.717,87.874z"/>
<path fill="#032140" d="M199.717,108.444l-13.769-7.949v5.377H163.93c-9.583,0-11.671-6.315-14.09-13.622
	c-2.108-6.375-4.498-13.603-13.13-13.603h-23.677c-1.42,0-2.573,1.15-2.573,2.571c0,1.423,1.153,2.572,2.573,2.572h23.677
	c4.472,0,5.879,2.915,8.248,10.075c2.397,7.239,5.677,17.15,18.974,17.15h22.021v5.375L199.717,108.444z"/>
</svg>
